<svg
  xmlns="http://www.w3.org/2000/svg"
  viewBox="-0.575 -1.575 3.15 3.15"
  width="3.15"
  height="3.15"
  fill="none"
  role="img"
  aria-labelledby="cap16-title cap16-description"
  preserveAspectRatio="xMidYMid meet"
  data-artwork-id="capacitor-electrolytic-470uf-16v-lead-formed"
  data-asset-revision="2026-09-03"
  data-asset-license="MIT"
  data-pitch-unit="1"
  data-body-diameter-pitch="3.15"
  data-body-dimension-status="provisional"
  data-native-terminal-pitch="1.38"
  data-terminal-span-pitch="2"
  data-lead-form="manual"
  data-polarized="true"
>
  <title id="cap16-title">Capacitor eletrolítico de 470 uF e 16 V com terminais conformados</title>
  <desc id="cap16-description">
    Ilustração original de uma variante provisória: os terminais de passo nativo 1,38 são dobrados
    manualmente para ocupar dois pitches, mantendo a polaridade visível.
  </desc>

  <circle cx="1" cy="0" r="1.52" fill="#34473e" stroke="#17221d" stroke-width="0.1" />
  <circle cx="1" cy="0" r="1.29" stroke="#71877b" stroke-width="0.07" />
  <path d="M1.96 -1.13A1.37 1.37 0 0 1 1.96 1.13" stroke="#d1d8d3" stroke-width="0.29" />
  <g fill="#34473e" font-family="ui-monospace, monospace" font-size="0.24" text-anchor="middle">
    <text x="2.08" y="-0.63">-</text>
    <text x="2.18" y="0.08">-</text>
    <text x="2.08" y="0.79">-</text>
  </g>

  <path d="M0 0C0.19 0 0.18 0.18 0.36 0.18" stroke="#b8bec2" stroke-width="0.09" />
  <path d="M2 0C1.81 0 1.82 0.18 1.64 0.18" stroke="#b8bec2" stroke-width="0.09" />
  <g data-pin-id="plus" data-pin-x="0" data-pin-y="0" data-primary="true">
    <rect
      x="-0.25"
      y="-0.25"
      width="0.5"
      height="0.5"
      rx="0.04"
      fill="#d7b24a"
      stroke="#ffffff"
      stroke-width="0.07"
    />
    <circle cx="0" cy="0" r="0.12" fill="#34473e" />
  </g>
  <g data-pin-id="minus" data-pin-x="2" data-pin-y="0">
    <circle cx="2" cy="0" r="0.25" fill="#d7b24a" />
    <circle cx="2" cy="0" r="0.12" fill="#34473e" />
  </g>

  <g fill="#f2f7f4" font-family="ui-sans-serif, sans-serif" text-anchor="middle">
    <text x="1" y="-0.52" font-size="0.31" font-weight="700">470uF</text>
    <text x="1" y="0.7" font-size="0.27">16 V</text>
    <text x="1" y="1.02" font-size="0.19">LEAD-FORMED</text>
    <text x="0" y="-0.39" font-size="0.52" font-weight="700">+</text>
  </g>
</svg>
